<svg xmlns="http://www.w3.org/2000/svg" width="47" height="47" viewBox="0 0 47 47"><g><g><path fill="#9e9e9e" d="M38.016 11.99H22.01v-2h16.006zm0 6.003H22.01v-2h16.006zm0 6.003H22.01v-2h16.006zm0 6.002H9.014v-2h29zm0 6.002H9.014v-2h29zm-20.02-25.01h-7a1 1 0 0 0-1 1v9a1 1 0 0 0 1 1h7a1 1 0 0 0 1-1v-9a1 1 0 0 0-1-1zm0-1a2 2 0 0 1 2 2v9a2 2 0 0 1-2 2h-7a2 2 0 0 1-2-2v-9a2 2 0 0 1 2-2zM23.5 47C10.542 47 0 36.458 0 23.5S10.542 0 23.5 0 47 10.542 47 23.5 36.458 47 23.5 47zm0-46C11.094 1 1 11.094 1 23.5S11.094 46 23.5 46 46 35.906 46 23.5 35.906 1 23.5 1z"/></g></g></svg>