<svg xmlns="http://www.w3.org/2000/svg" width="47" height="47" viewBox="0 0 47 47"><g><g><path fill="#9e9e9e" d="M17.356 15.004h2.649v11.055c0 .78-.125 1.476-.374 2.089a4.326 4.326 0 0 1-1.04 1.549 4.513 4.513 0 0 1-1.582.957c-.61.22-1.276.33-1.998.33-.729 0-1.4-.094-2.012-.281a4.212 4.212 0 0 1-1.583-.867 3.983 3.983 0 0 1-1.036-1.472c-.248-.59-.372-1.287-.372-2.089h2.649c0 .455.057.843.174 1.164.114.32.276.58.483.78.207.198.453.344.74.438.288.093.607.14.957.14.344 0 .659-.059.946-.179.287-.118.535-.293.742-.524.207-.232.367-.515.484-.856.114-.338.173-.732.173-1.179zm14.856 11.763c0-.315-.049-.594-.144-.839-.095-.247-.27-.472-.523-.678-.255-.207-.604-.403-1.049-.594a16.714 16.714 0 0 0-1.715-.592c-.765-.22-1.47-.473-2.117-.757a7.332 7.332 0 0 1-1.67-.994 4.272 4.272 0 0 1-1.099-1.303c-.264-.492-.397-1.053-.397-1.688 0-.625.138-1.202.414-1.73a4.12 4.12 0 0 1 1.163-1.367c.5-.384 1.1-.683 1.798-.897.7-.213 1.471-.32 2.316-.32.905 0 1.717.127 2.438.38.72.253 1.33.596 1.825 1.03.497.434.877.938 1.142 1.511.265.574.397 1.184.397 1.832h-2.78c0-.378-.06-.724-.181-1.042a2.174 2.174 0 0 0-.558-.822 2.586 2.586 0 0 0-.948-.54c-.382-.128-.834-.192-1.357-.192-.492 0-.92.054-1.28.161-.359.107-.659.256-.898.449-.24.192-.415.42-.53.683-.113.263-.17.548-.17.855 0 .576.28 1.056.844 1.44.562.385 1.42.742 2.575 1.068.904.257 1.687.542 2.35.855.66.314 1.21.668 1.648 1.063.438.395.762.84.976 1.335.214.495.32 1.052.32 1.671 0 .655-.134 1.243-.403 1.768-.268.522-.65.968-1.147 1.334-.495.367-1.097.648-1.803.844-.706.196-1.493.293-2.36.293a8.67 8.67 0 0 1-2.283-.304 6.524 6.524 0 0 1-2.019-.919 4.826 4.826 0 0 1-1.44-1.532c-.362-.612-.545-1.33-.545-2.157h2.79c0 .491.09.912.27 1.266.18.351.427.64.74.864.312.225.682.388 1.108.491.426.105.886.156 1.379.156.97 0 1.7-.19 2.19-.571.488-.381.733-.886.733-1.511zM23.5 47C10.542 47 0 36.458 0 23.5S10.542 0 23.5 0 47 10.542 47 23.5 36.458 47 23.5 47zm0-46C11.094 1 1 11.094 1 23.5S11.094 46 23.5 46 46 35.906 46 23.5 35.906 1 23.5 1z"/></g></g></svg>