<svg xmlns="http://www.w3.org/2000/svg" width="47" height="47" viewBox="0 0 47 47"><g><g><path fill="#9e9e9e" d="M14.499 16.99h-1a2.502 2.502 0 0 1-2.5-2.5v-1c0-1.379 1.121-2.5 2.5-2.5h1c1.379 0 2.5 1.121 2.5 2.5v1c0 1.38-1.121 2.5-2.5 2.5zm-1-5c-.827 0-1.5.673-1.5 1.5v1c0 .827.673 1.5 1.5 1.5h1c.827 0 1.5-.673 1.5-1.5v-1c0-.827-.673-1.5-1.5-1.5zm22.51 3h-16v-2h16zm-21.51 12.006h-1a2.502 2.502 0 0 1-2.5-2.5v-1c0-1.379 1.121-2.5 2.5-2.5h1c1.379 0 2.5 1.121 2.5 2.5v1c0 1.379-1.121 2.5-2.5 2.5zm-1-5c-.827 0-1.5.673-1.5 1.5v1c0 .827.673 1.5 1.5 1.5h1c.827 0 1.5-.673 1.5-1.5v-1c0-.827-.673-1.5-1.5-1.5zm22.51 3h-16v-2h16zm-21.51 12.006h-1a2.502 2.502 0 0 1-2.5-2.5v-1c0-1.379 1.121-2.5 2.5-2.5h1c1.379 0 2.5 1.121 2.5 2.5v1c0 1.379-1.121 2.5-2.5 2.5zm-1-5c-.827 0-1.5.673-1.5 1.5v1c0 .827.673 1.5 1.5 1.5h1c.827 0 1.5-.673 1.5-1.5v-1c0-.827-.673-1.5-1.5-1.5zm22.51 3h-16v-2h16zM23.5 47C10.542 47 0 36.458 0 23.5S10.542 0 23.5 0 47 10.542 47 23.5 36.458 47 23.5 47zm0-46C11.094 1 1 11.094 1 23.5S11.094 46 23.5 46 46 35.906 46 23.5 35.906 1 23.5 1z"/></g></g></svg>