<svg xmlns="http://www.w3.org/2000/svg" width="47" height="47" viewBox="0 0 47 47"><g><g><path fill="#9e9e9e" d="M34.994 9.444V35.18a1.14 1.14 0 0 1-1.147 1.133l-.378.032v.528c0 .626-.523 1.13-1.17 1.13H13.44l-.091.009c-.014 0-.026-.008-.04-.008h-.136c-.645 0-1.169-.505-1.169-1.131V11.151c0-.625.524-1.132 1.17-1.132h.135c.014 0 .026-.008.04-.008l20.499-1.7a1.14 1.14 0 0 1 1.147 1.133zm-3.048 1.707c0-.067-.067-.122-.146-.122H13.172c-.079 0-.146.055-.146.122v25.721c0 .066.065.12.146.12H31.8c.08 0 .146-.054.146-.12zm2.025-1.707c0-.06-.044-.11-.102-.12l-7.971.695H31.8c.645 0 1.17.507 1.17 1.132v24.178l.787-.024.045-.004h.045a.124.124 0 0 0 .124-.122zM29.006 32.2v.6c0 .664-.506 1.199-1.131 1.199h-10.74c-.624 0-1.13-.535-1.13-1.2V32.2c0-.662.506-1.199 1.13-1.199h10.74c.625 0 1.13.537 1.13 1.2zm-1 0c0-.123-.076-.199-.131-.199h-10.74c-.054 0-.13.076-.13.2v.599c0 .114.07.199.13.199h10.74c.061 0 .13-.085.13-.2zM22.5 27a6.5 6.5 0 1 1 0-13 6.5 6.5 0 0 1 0 13zm0-12a5.5 5.5 0 1 0 0 11 5.5 5.5 0 0 0 0-11zm1 32C10.542 47 0 36.458 0 23.5S10.542 0 23.5 0 47 10.542 47 23.5 36.458 47 23.5 47zm0-46C11.094 1 1 11.094 1 23.5S11.094 46 23.5 46 46 35.906 46 23.5 35.906 1 23.5 1z"/></g></g></svg>